<?xml version="1.0" standalone="no"?>
<!DOCTYPE svg PUBLIC "-//W3C//DTD SVG 20010904//EN"
 "http://www.w3.org/TR/2001/REC-SVG-20010904/DTD/svg10.dtd">
<svg version="1.0" xmlns="http://www.w3.org/2000/svg"
 width="980.000000pt" height="980.000000pt" viewBox="0 0 980.000000 980.000000"
 preserveAspectRatio="xMidYMid meet">

<g transform="translate(0.000000,980.000000) scale(0.100000,-0.100000)"
fill="#000000" stroke="none">
<path d="M0 4900 l0 -4900 4900 0 4900 0 0 4900 0 4900 -4900 0 -4900 0 0
-4900z m6292 2658 c9 -7 75 -116 148 -243 73 -126 137 -236 142 -242 8 -9 -20
-66 -97 -200 -60 -104 -112 -195 -118 -203 -7 -12 19 -65 107 -216 l116 -201
-147 -256 -148 -257 -295 3 -295 2 -114 198 -115 197 -231 0 -230 0 -41 73
c-23 39 -90 155 -148 255 -58 101 -106 185 -106 186 0 5 282 491 288 498 4 4
110 8 237 10 l230 3 112 194 c61 107 118 198 125 202 22 15 562 11 580 -3z
m-737 -1994 c116 -202 211 -373 213 -380 3 -12 -153 -14 -1016 -14 l-1019 0
-11 -25 c-6 -13 -66 -118 -133 -232 -67 -114 -122 -212 -122 -218 0 -5 62
-117 138 -248 l137 -237 1014 2 c565 2 1014 -1 1014 -6 0 -4 -96 -174 -212
-377 l-213 -369 -712 0 -711 0 -65 113 c-36 61 -133 231 -218 377 -84 146
-215 373 -291 504 l-139 239 327 566 c180 311 341 590 358 619 l30 52 711 0
710 -1 210 -365z m-3106 -2627 c62 -23 122 -73 163 -136 42 -67 40 -71 -49
-71 -77 0 -78 0 -106 35 -38 48 -79 67 -146 67 -94 0 -151 -35 -194 -117 -30
-57 -30 -174 0 -231 46 -87 136 -132 230 -115 51 10 85 31 115 71 21 29 25 30
101 30 77 0 78 0 72 -22 -23 -74 -106 -156 -191 -188 -50 -18 -74 -21 -154
-18 -85 3 -102 7 -158 38 -70 37 -120 89 -154 159 -20 40 -23 62 -23 161 0
102 3 121 25 165 82 167 283 241 469 172z m4066 22 c76 -14 126 -40 186 -96
101 -95 136 -247 89 -389 -31 -91 -115 -180 -204 -213 -61 -22 -171 -30 -231
-15 -103 25 -197 103 -244 203 -22 48 -26 69 -26 151 0 82 4 103 27 152 60
129 176 205 329 217 8 0 42 -4 74 -10z m-2934 -309 c60 -168 118 -329 129
-357 l19 -53 -77 0 -78 0 -23 70 -22 70 -143 0 -142 0 -23 -70 -22 -70 -76 0
c-56 0 -74 3 -71 13 2 6 60 169 129 360 l124 348 84 -3 83 -3 109 -305z m894
300 c71 -12 142 -53 169 -99 62 -107 23 -246 -85 -301 -21 -11 -39 -23 -39
-26 0 -3 36 -66 80 -140 44 -74 80 -136 80 -139 0 -3 -37 -5 -82 -3 l-82 3
-77 135 c-74 132 -77 135 -112 138 l-37 3 0 -140 0 -141 -70 0 -70 0 0 360 0
360 133 0 c72 0 159 -5 192 -10z m1060 -10 c81 -38 124 -96 125 -169 0 -51
-36 -117 -77 -142 -36 -22 -36 -22 -12 -31 62 -23 99 -84 99 -163 0 -82 -30
-129 -110 -171 -30 -16 -64 -19 -232 -22 l-198 -4 0 354 c0 195 3 358 8 362
13 14 364 1 397 -14z m2011 -222 l159 -242 3 242 2 242 70 0 70 0 0 -360 0
-360 -69 0 -68 0 -159 240 -159 240 -3 -240 -2 -241 -73 3 -72 3 -3 345 c-1
190 0 351 3 357 3 9 27 13 73 13 l69 0 159 -242z"/>
<path d="M5752 7207 c-45 -79 -82 -147 -82 -152 0 -4 37 -73 83 -151 l82 -144
166 0 167 0 82 143 c46 78 83 147 83 152 0 6 -37 74 -83 153 l-82 142 -167 0
-167 0 -82 -143z"/>
<path d="M5060 6808 c-46 -79 -83 -148 -83 -153 0 -6 37 -74 82 -153 l83 -142
163 0 164 0 19 28 c10 15 49 80 86 146 l68 118 -27 51 c-15 27 -53 93 -85 146
l-57 96 -165 3 -166 2 -82 -142z"/>
<path d="M5817 6513 c-90 -144 -148 -255 -142 -271 3 -9 40 -77 82 -149 l75
-133 168 0 168 0 81 140 c45 77 81 146 81 152 0 7 -37 77 -82 155 l-81 143
-164 0 -163 0 -23 -37z"/>
<path d="M3997 5618 c-113 -194 -128 -221 -124 -224 2 -2 346 -3 765 -2 l761
3 -91 158 -91 157 -583 0 -583 0 -54 -92z"/>
<path d="M3870 3993 c1 -5 40 -75 88 -158 l87 -150 587 -3 586 -2 88 152 c48
84 89 156 91 161 2 4 -340 7 -761 7 -421 0 -766 -3 -766 -7z"/>
<path d="M6393 2830 c-102 -24 -163 -110 -163 -230 0 -168 129 -271 284 -226
94 28 146 108 146 226 0 117 -52 198 -144 225 -54 16 -74 17 -123 5z"/>
<path d="M3336 2644 c-25 -77 -46 -142 -46 -147 0 -4 45 -7 101 -7 92 0 101 2
94 18 -4 9 -24 67 -45 129 -21 61 -42 119 -48 129 -7 13 -20 -14 -56 -122z"/>
<path d="M4298 2834 c-5 -4 -8 -52 -8 -106 l0 -98 79 0 c101 0 128 10 147 57
20 46 12 92 -21 123 -21 20 -38 24 -108 28 -45 2 -85 1 -89 -4z"/>
<path d="M5280 2749 l0 -91 89 4 c78 3 93 6 115 27 19 18 26 34 26 60 -1 69
-38 91 -149 91 l-81 0 0 -91z"/>
<path d="M5280 2455 l0 -95 88 0 c49 0 98 6 112 13 62 31 66 122 7 157 -25 16
-50 20 -119 20 l-88 0 0 -95z"/>
</g>
</svg>
